<svg width="628" height="425" viewBox="0 0 628 425" fill="none" xmlns="http://www.w3.org/2000/svg">
<path d="M548.061 121.915C548.061 121.915 538.783 142.113 532.539 150.647C526.295 159.178 520.347 167.339 515.367 191.021C510.385 214.704 511.238 217.083 509.875 223.2C508.511 229.317 499.639 254.1 499.586 258.644C499.534 263.189 481.653 289.059 477.071 301.169C472.492 313.276 464.376 330.573 464.834 339.378L466.872 338.86C466.872 338.86 468.532 318.328 482.668 297.578C496.806 276.827 494.783 272.91 510.838 262.248C526.89 251.589 537.258 222.143 537.258 222.143C537.258 222.143 553.589 190.158 552.83 173.528C552.071 156.901 556.403 141.907 548.061 121.915Z" fill="#28E4C9"/>
<path d="M526.332 90.8456C526.332 90.8456 525.792 104.115 521.511 111.997C517.233 119.881 513.545 124.667 512.769 133.196C511.992 141.725 509.304 163.71 497.368 174.446C485.433 185.177 483.91 217.341 474.823 227.07C465.74 236.801 464.552 243.794 466.23 260.481C467.907 277.167 473.606 300.293 460.429 330.478L457.45 322.97C457.45 322.97 466.877 298.137 464.595 283.596C462.313 269.057 454.371 247.084 457.278 236.547C460.185 226.01 449.374 223.952 455.884 208.014C462.392 192.076 459.719 186.539 468.582 172.759C468.582 172.759 469.49 172.114 471.819 160.455C474.149 148.795 492.931 127.427 501.587 120.135C510.24 112.843 522.713 101.156 526.332 90.8456Z" fill="#28E4C9"/>
<path d="M491.08 156.543C491.08 156.543 480.714 174.29 480.568 185.71C480.421 197.133 481.658 206.424 476.414 222.063C471.17 237.704 481.578 247.592 478.577 256.228C475.578 264.863 475.346 275.087 475.436 282.839C475.528 290.594 463.565 316.253 461.743 329.244C459.924 342.237 462.251 342.28 462.251 342.28C462.251 342.28 464.234 325.127 466.987 319.456C469.739 313.784 478.109 294.228 480.065 286.662C482.018 279.096 487.319 274.241 491.891 261.429C496.463 248.615 502.963 237.824 502.468 219.641C501.97 201.461 509.287 182.271 491.08 156.543Z" fill="#28E4C9"/>
<path d="M469.137 330.374C469.137 330.374 473.97 307.853 494.35 305.604C514.732 303.356 526.706 307.386 541.103 290.933C555.502 274.477 563.864 248.368 568.464 243.874C568.464 243.874 561.229 240.151 549.203 251.395C537.176 262.639 528.726 271.17 521.763 277.715C514.802 284.263 509.148 279.995 501.796 284.31C495.634 287.926 487.668 298.381 484.159 303.857C483.019 305.636 481.667 307.269 480.115 308.7C478.703 310.004 477.021 311.601 475.943 312.776C473.786 315.128 467.562 330.456 467.562 330.456L469.137 330.374Z" fill="#28E4C9"/>
<path d="M461.952 326.402C461.952 326.402 469.137 298.859 464.324 285.38C459.513 271.904 444.451 261.929 445.056 253.463C445.661 244.996 455.332 222.112 447.448 205.077C447.448 205.077 444.451 220.273 441.497 223.653C438.541 227.035 418.26 240.666 421.856 258.672C425.45 276.675 445.168 280.883 450.024 286.184C454.879 291.483 461.437 291.478 461.477 295.002C461.519 298.526 462.798 311.34 460.621 323.985L461.952 326.402Z" fill="#28E4C9"/>
<path d="M469.807 307.97L479.899 278.902C479.899 278.902 485.827 255.521 489.261 236.024C492.698 216.528 491.08 156.543 491.08 156.543C491.08 156.543 480.715 174.29 480.568 185.71C480.421 197.133 481.658 206.424 476.414 222.063C471.171 237.704 481.579 247.592 478.577 256.228C475.578 264.863 475.347 275.087 475.436 282.839C475.528 290.594 463.565 316.253 461.744 329.244C460.748 336.361 460.994 339.589 461.422 341.055C459.805 329.692 469.807 307.97 469.807 307.97Z" fill="#28E4C9"/>
<path d="M519.511 290.654C510.509 292.451 502.461 291.839 491.774 299.792C481.088 307.746 474.804 316.24 474.804 316.24C474.804 316.24 470 324.824 468.014 329.351C467.728 330.043 467.562 330.456 467.562 330.456L469.137 330.374C469.137 330.374 473.97 307.853 494.35 305.604C514.732 303.356 526.706 307.386 541.103 290.933C555.502 274.477 563.864 248.368 568.464 243.874C568.464 243.874 553.151 255.787 543.686 266.332C534.224 276.874 528.515 288.855 519.511 290.654Z" fill="#28E4C9"/>
<path d="M441.497 223.653C438.541 227.035 418.26 240.666 421.856 258.672C425.45 276.675 445.168 280.883 450.024 286.184C454.879 291.483 461.437 291.478 461.477 295.002C461.519 298.526 462.798 311.34 460.621 323.985L461.203 325.04C462.266 320.105 463.741 312.589 464.224 306.883C465.008 297.617 463.507 293.78 460.528 286.274C457.549 278.765 439.041 263.475 434.402 255.436C429.766 247.395 443.346 233.959 446.36 227.471C449.374 220.983 447.448 205.077 447.448 205.077C447.448 205.077 444.451 220.273 441.497 223.653Z" fill="#28E4C9"/>
<path d="M489.612 313.095L492.78 305.437C495.239 299.805 501.528 297.117 506.829 299.432C520.191 305.263 525.997 321.494 519.802 335.687L515.273 346.063C513.289 350.607 513.979 355.609 516.657 359.133C519.086 362.336 519.481 366.789 517.796 370.648L515.41 376.119C512.824 382.039 507.794 386.427 501.829 388.236C498.34 389.294 495.259 391.912 493.629 395.645L490.249 403.39C486.511 411.951 476.947 416.04 468.886 412.523L464.287 410.515C456.226 406.996 452.722 397.203 456.46 388.639C462.505 378.401 462.022 370.76 459.879 365.577C456.731 357.956 456.768 349.188 460.175 341.384L460.653 340.289C464.247 332.051 471.193 325.902 479.46 323.269C483.111 322.106 486.917 319.267 489.612 313.095Z" fill="#28E4C9"/>
<path d="M432.565 421.226C439.049 412.819 474.6 367.789 497.779 360.283C523.368 352.001 499.25 384.901 499.25 384.901C499.25 384.901 544.642 335.266 561.301 339.741C576.569 343.843 561.301 374.608 561.301 374.608C561.301 374.608 578.498 357.57 599.353 357.57C619.649 357.57 585.173 417.991 583.311 421.226H432.565Z" fill="#FF6C4A"/>
<path d="M569.361 323.808C550.815 352.774 537.279 384.951 529.541 419.133L528.27 418.792C535.975 385.324 549.421 353.205 567.935 324.271C572.237 317.549 576.884 309.571 584.942 306.947C585.097 306.898 585.156 307.134 585.007 307.189C577.648 309.961 573.387 317.522 569.361 323.808Z" fill="white"/>
<path d="M534.01 420.333C554.736 392.151 579.929 366.101 609.888 343.449C610.189 343.223 610.592 343.745 610.291 343.977C581.878 365.818 556.739 391.608 535.585 420.753L534.01 420.333Z" fill="white"/>
<path d="M571.055 305.847C571.533 306.549 573.359 308.381 573.897 310.785C574.619 313.067 574.049 315.924 573.986 315.825C573.85 315.882 576.102 313.978 576.806 310.949C577.717 308.042 577.08 304.013 575.945 302.679C573.989 299.66 570.569 299.354 569.905 300.818C569.201 302.271 570.094 304.25 571.055 305.847Z" fill="white"/>
<path d="M575.492 331.7C574.8 331.21 573.003 329.346 570.609 328.761C568.342 327.997 565.475 328.51 565.572 328.572C565.514 328.709 567.461 326.494 570.504 325.852C573.426 324.998 577.443 325.715 578.754 326.874C581.733 328.89 581.972 332.315 580.496 332.949C579.028 333.624 577.07 332.693 575.492 331.7Z" fill="white"/>
<path d="M568.795 343.031C568.103 342.541 566.309 340.677 563.915 340.095C561.647 339.328 558.778 339.841 558.878 339.903C558.818 340.04 560.766 337.825 563.808 337.183C566.732 336.329 570.749 337.046 572.06 338.206C575.039 340.222 575.278 343.646 573.802 344.281C572.334 344.958 570.373 344.024 568.795 343.031Z" fill="white"/>
<path d="M592.679 369.317C591.987 368.824 590.193 366.96 587.796 366.378C585.529 365.611 582.662 366.124 582.761 366.186C582.702 366.323 584.648 364.108 587.691 363.466C590.613 362.612 594.63 363.329 595.942 364.489C598.921 366.505 599.159 369.929 597.684 370.564C596.215 371.241 594.257 370.307 592.679 369.317Z" fill="white"/>
<path d="M604.881 358.566C604.189 358.075 602.393 356.211 599.999 355.627C597.731 354.86 594.864 355.375 594.961 355.437C594.902 355.574 596.85 353.359 599.894 352.715C602.816 351.864 606.832 352.58 608.144 353.738C611.123 355.754 611.362 359.178 609.886 359.815C608.418 360.49 606.459 359.559 604.881 358.566Z" fill="white"/>
<path d="M561.688 318.669C562.27 319.287 564.363 320.807 565.272 323.099C566.344 325.237 566.232 328.149 566.155 328.059C566.028 328.139 567.952 325.902 568.171 322.801C568.612 319.787 567.347 315.909 566.018 314.77C563.609 312.097 560.185 312.336 559.759 313.884C559.294 315.432 560.488 317.243 561.688 318.669Z" fill="white"/>
<path d="M551.84 331.518C552.668 331.959 555.565 332.755 557.021 334.923C558.669 336.849 558.878 340.147 558.768 340.08C558.614 340.221 560.831 336.899 560.734 333.343C560.941 329.791 558.83 326.006 556.971 325.307C553.529 323.358 549.124 325.095 548.764 327.009C548.348 328.935 550.115 330.443 551.84 331.518Z" fill="white"/>
<path d="M541.479 350.983C542.37 351.276 545.357 351.575 547.156 353.466C549.105 355.089 549.866 358.304 549.747 358.257C549.617 358.421 551.245 354.775 550.553 351.286C550.157 347.75 547.442 344.373 545.491 343.994C541.77 342.655 537.721 345.107 537.686 347.053C537.599 349.022 539.595 350.214 541.479 350.983Z" fill="white"/>
<path d="M572.142 364.541C572.792 364.947 575.102 365.758 576.162 367.605C577.391 369.265 577.374 371.96 577.289 371.898C577.155 372.005 579.148 369.429 579.273 366.532C579.643 363.655 578.143 360.455 576.669 359.778C573.979 357.998 570.298 359.16 569.895 360.696C569.447 362.239 570.799 363.568 572.142 364.541Z" fill="white"/>
<path d="M588.108 310.404C587.72 310.083 586.739 308.901 585.348 308.451C584.039 307.898 582.322 308.077 582.376 308.12C582.336 308.197 583.583 306.972 585.412 306.726C587.179 306.348 589.524 306.947 590.248 307.692C591.923 309.013 591.913 311.049 591.012 311.36C590.116 311.696 588.996 311.059 588.108 310.404Z" fill="white"/>
<path d="M584.388 302.132C584.406 302.637 584.742 304.133 584.249 305.509C583.888 306.883 582.698 308.134 582.698 308.067C582.611 308.052 584.344 307.808 585.655 306.512C587.034 305.345 587.989 303.12 587.843 302.092C587.818 299.959 586.2 298.722 585.404 299.247C584.59 299.752 584.411 301.027 584.388 302.132Z" fill="white"/>
<path d="M613.669 347.615C613.281 347.297 612.3 346.115 610.909 345.664C609.6 345.112 607.883 345.291 607.938 345.331C607.895 345.41 609.145 344.186 610.974 343.937C612.741 343.561 615.085 344.161 615.81 344.903C617.484 346.227 617.475 348.263 616.574 348.574C615.678 348.91 614.558 348.272 613.669 347.615Z" fill="white"/>
<path d="M609.181 339.273C609.241 339.773 609.698 341.239 609.32 342.65C609.071 344.049 607.989 345.395 607.984 345.326C607.897 345.318 609.604 344.935 610.806 343.536C612.08 342.257 612.852 339.965 612.623 338.952C612.424 336.827 610.709 335.727 609.957 336.314C609.188 336.887 609.116 338.171 609.181 339.273Z" fill="white"/>
<path d="M606.061 393.183C587.125 395.259 569.487 403.619 552.507 411.769C541.059 417.267 541.636 418.832 539.304 419.651C538.926 419.783 538.547 419.372 538.732 419.009C539.628 417.232 541.982 416.03 543.617 415.007C545.523 413.817 547.514 412.765 549.533 411.784C553.856 409.686 558.288 407.8 562.693 405.886C571.655 401.991 580.763 398.328 590.23 395.849C595.422 394.49 600.703 393.509 606.049 393.029C606.148 393.019 606.161 393.171 606.061 393.183Z" fill="white"/>
<path d="M588.992 387.31C589.114 388.089 589.926 390.344 589.425 392.571C589.129 394.769 587.524 396.939 587.514 396.832C587.375 396.824 590.015 396.118 591.8 393.855C593.709 391.78 594.764 388.151 594.341 386.586C593.893 383.283 591.148 381.678 590.013 382.644C588.848 383.585 588.818 385.593 588.992 387.31Z" fill="white"/>
<path d="M572.31 393.286C572.434 394.062 573.243 396.317 572.743 398.547C572.446 400.744 570.844 402.914 570.831 402.805C570.694 402.797 573.332 402.091 575.117 399.831C577.028 397.755 578.083 394.124 577.66 392.559C577.21 389.256 574.465 387.651 573.33 388.617C572.168 389.557 572.135 391.568 572.31 393.286Z" fill="white"/>
<path d="M555.359 400.841C555.481 401.618 556.289 403.873 555.792 406.103C555.495 408.3 553.89 410.47 553.88 410.361C553.741 410.356 556.381 409.647 558.166 407.387C560.075 405.311 561.13 401.68 560.707 400.115C560.259 396.815 557.511 395.207 556.379 396.173C555.214 397.113 555.184 399.124 555.359 400.841Z" fill="white"/>
<path d="M593.973 402.899C593.629 402.257 592.967 400.144 591.357 398.781C589.911 397.325 587.517 396.623 587.569 396.708C587.472 396.79 589.812 395.839 592.387 396.508C594.953 396.971 597.758 399.057 598.321 400.448C599.831 403.131 598.704 405.846 597.33 405.769C595.949 405.727 594.801 404.261 593.973 402.899Z" fill="white"/>
<path d="M576.62 409.042C576.279 408.399 575.615 406.287 574.005 404.923C572.559 403.467 570.165 402.765 570.217 402.85C570.12 402.932 572.459 401.981 575.037 402.651C577.603 403.113 580.406 405.199 580.968 406.59C582.479 409.273 581.351 411.988 579.978 411.911C578.596 411.869 577.451 410.403 576.62 409.042Z" fill="white"/>
<path d="M607.189 396.576C606.89 396.217 606.194 394.978 605.001 394.336C603.904 393.612 602.309 393.487 602.351 393.535C602.301 393.599 603.645 392.693 605.35 392.773C607.022 392.726 609.058 393.664 609.596 394.463C610.9 395.949 610.551 397.803 609.678 397.935C608.804 398.091 607.891 397.322 607.189 396.576Z" fill="white"/>
<path d="M605.187 388.418C605.117 388.878 605.174 390.299 604.495 391.471C603.935 392.661 602.641 393.604 602.653 393.54C602.576 393.512 604.196 393.582 605.607 392.621C607.058 391.788 608.302 389.921 608.342 388.96C608.676 387.012 607.409 385.613 606.595 385.959C605.769 386.283 605.393 387.415 605.187 388.418Z" fill="white"/>
<path d="M117.455 277.399C95.203 257.557 83.7612 229.063 78.0812 208.651C71.915 186.494 71.0168 168.809 71.0083 168.633L69.7988 168.558C69.8073 168.737 70.7094 186.551 76.913 208.858C82.6458 229.469 94.208 258.256 116.736 278.342L117.455 277.399Z" fill="#28E4C9"/>
<path d="M73.5432 163.504C74.64 168.605 73.7219 173.426 71.3835 176.905C67.7169 174.205 64.8335 169.882 63.7367 164.78C62.6402 159.678 63.5583 154.858 65.8967 151.379C69.5633 154.076 72.4467 158.402 73.5432 163.504Z" fill="#28E4C9"/>
<path d="M66.7179 178.033C70.5518 181.599 72.7928 186.285 73.2271 190.797C69.0185 190.987 64.388 189.279 60.5541 185.713C56.7203 182.144 54.4792 177.46 54.0449 172.948C58.2536 172.757 62.8841 174.467 66.7179 178.033Z" fill="#28E4C9"/>
<path d="M64.9189 193.296C69.6832 194.792 73.5908 198.109 75.9033 202.138C72.4455 204.361 67.8132 204.998 63.0489 203.505C58.2842 202.009 54.377 198.691 52.0645 194.66C55.5223 192.44 60.1542 191.8 64.9189 193.296Z" fill="#28E4C9"/>
<path d="M72.2564 211.657C76.0303 212.849 79.0478 215.893 80.7571 219.738C77.8958 222.142 74.1491 223.053 70.3749 221.864C66.6011 220.671 63.5835 217.628 61.874 213.783C64.7353 211.379 68.4823 210.468 72.2564 211.657Z" fill="#28E4C9"/>
<path d="M78.7003 185.452C81.6703 182.46 85.6042 181.186 89.4119 181.597C89.6229 185.626 88.2333 189.71 85.263 192.701C82.293 195.69 78.3591 196.964 74.5511 196.556C74.3403 192.527 75.73 188.44 78.7003 185.452Z" fill="#28E4C9"/>
<path d="M82.1434 198.612C85.1136 195.62 89.0475 194.346 92.8553 194.754C93.0663 198.786 91.6766 202.87 88.7063 205.859C85.7363 208.85 81.8024 210.124 77.9945 209.716C77.7837 205.685 79.1734 201.601 82.1434 198.612Z" fill="#28E4C9"/>
<path d="M104.044 304.307C83.4956 301.313 65.9102 289.138 54.7765 279.452C42.6893 268.94 35.3815 259.005 35.3091 258.906L34.5771 259.326C34.6503 259.426 42.0104 269.435 54.1759 280.02C65.4179 289.803 83.1853 302.1 103.989 305.133L104.044 304.307Z" fill="#FF6C4A"/>
<path d="M34.8143 254.951C37.4096 257.494 38.7251 260.65 38.7012 263.569C35.5341 263.408 32.1982 261.999 29.603 259.456C27.008 256.91 25.6922 253.756 25.7161 250.835C28.8835 250.999 32.2191 252.405 34.8143 254.951Z" fill="#FF6C4A"/>
<path d="M36.421 266.016C40.0184 266.618 43.1188 268.479 45.1026 270.936C42.7296 272.663 39.3825 273.447 35.7851 272.845C32.1877 272.242 29.087 270.378 27.1035 267.922C29.4765 266.197 32.8238 265.413 36.421 266.016Z" fill="#FF6C4A"/>
<path d="M41.2329 275.577C44.5762 274.619 48.1206 275.047 51.0115 276.503C49.8535 279.121 47.4059 281.269 44.0628 282.23C40.7195 283.188 37.1751 282.76 34.2842 281.304C35.4422 278.686 37.8898 276.538 41.2329 275.577Z" fill="#FF6C4A"/>
<path d="M52.5443 283.437C55.195 282.68 58.1172 283.292 60.5863 284.87C59.8454 287.366 58.0169 289.335 55.3665 290.089C52.7157 290.845 49.7935 290.233 47.3242 288.655C48.0654 286.159 49.8936 284.193 52.5443 283.437Z" fill="#FF6C4A"/>
<path d="M46.2336 265.729C46.8128 262.85 48.6103 260.6 50.9808 259.378C52.6498 261.638 53.4093 264.547 52.8302 267.424C52.2511 270.301 50.4532 272.553 48.0827 273.775C46.4138 271.516 45.6543 268.606 46.2336 265.729Z" fill="#FF6C4A"/>
<path d="M53.2853 272.058C53.8646 269.179 55.6622 266.929 58.0327 265.705C59.7016 267.967 60.4609 270.876 59.8818 273.753C59.3027 276.63 57.5049 278.882 55.1346 280.104C53.4657 277.842 52.7061 274.935 53.2853 272.058Z" fill="#FF6C4A"/>
<path d="M116.418 365.81C92.7139 374.809 66.6214 370.056 48.9063 364.484C29.6748 358.434 15.8854 350.141 15.748 350.059L15.2227 351.062C15.3605 351.147 29.2507 359.504 48.6094 365.596C66.4982 371.226 92.8595 376.024 116.857 366.913L116.418 365.81Z" fill="#28E4C9"/>
<path d="M12.8311 345.244C17.1341 346.916 20.4415 350.176 22.1804 353.977C18.7082 355.751 14.3037 356.017 10.0007 354.347C5.69771 352.675 2.39023 349.415 0.651367 345.614C4.12336 343.84 8.52812 343.574 12.8311 345.244Z" fill="#28E4C9"/>
<path d="M21.2295 358.573C25.4262 357.1 29.8558 357.57 33.4533 359.511C31.9683 363.234 28.8758 366.348 24.6788 367.824C20.4821 369.297 16.0525 368.824 12.4551 366.885C13.9403 363.162 17.0328 360.049 21.2295 358.573Z" fill="#28E4C9"/>
<path d="M32.1343 367.951C35.1165 364.611 39.1527 362.946 43.1125 363.02C43.4601 367.139 42.1511 371.457 39.1686 374.795C36.1861 378.134 32.1502 379.799 28.1904 379.725C27.8428 375.608 29.1521 371.288 32.1343 367.951Z" fill="#28E4C9"/>
<path d="M47.3921 372.791C50.3743 369.454 54.4105 367.789 58.37 367.864C58.718 371.98 57.4086 376.298 54.4264 379.638C51.444 382.975 47.408 384.64 43.4483 384.568C43.1006 380.449 44.4096 376.131 47.3921 372.791Z" fill="#28E4C9"/>
<path d="M33.0368 357.15C30.4122 353.733 29.2425 349.614 29.5205 345.878C32.9771 346.282 36.511 348.29 39.1354 351.707C41.7597 355.124 42.9296 359.243 42.6514 362.978C39.1951 362.575 35.6611 360.567 33.0368 357.15Z" fill="#28E4C9"/>
<path d="M48.887 362.109C46.2134 358.732 44.98 354.628 45.1973 350.88C48.6526 351.224 52.2112 353.173 54.885 356.55C57.5589 359.927 58.7923 364.033 58.575 367.781C55.1195 367.438 51.5609 365.489 48.887 362.109Z" fill="#28E4C9"/>
<path d="M67.4445 374.118C68.1456 372.338 69.5383 371.101 71.1701 370.591C71.9528 372.236 72.0892 374.19 71.3881 375.969C70.6871 377.749 69.2944 378.985 67.6625 379.496C66.8796 377.851 66.7437 375.897 67.4445 374.118Z" fill="#28E4C9"/>
<path d="M167.292 419.489C167.292 419.489 197.492 300.046 187.477 288.046C173.637 271.459 162.22 326.481 161.1 321.808C150.521 277.673 147.703 221.202 113.574 215.226C94.1739 211.827 118.056 257.218 116.619 269.495C115.182 281.772 80.2202 241.012 58.9751 219.659C37.7298 198.306 26.7576 211.824 40.1812 238.675C53.1618 264.64 95.1539 293.013 86.498 296.38C77.8422 299.748 25.2927 266.215 18.8577 280.55C10.9675 298.125 89.7943 322.041 82.3714 325.991C74.9486 329.938 37.2741 316.935 38.3034 330.374C39.3325 343.815 89.9777 343.312 89.1121 349.226C87.7107 358.797 54.2142 337.131 52.7419 350.375C51.236 363.921 96.8097 361.45 96.0202 372.017C95.5666 378.09 85.7877 368.929 84.3467 377.34C81.0614 396.516 141.139 419.877 141.139 419.877L167.292 419.489Z" fill="white"/>
<path d="M190.32 420.219C190.32 420.219 161.578 376.151 147.748 367.831C133.011 358.967 144.23 385.509 144.23 385.509C144.23 385.509 114.115 349.674 105.744 356.953C97.3721 364.235 104.971 372.667 104.971 372.667C104.971 372.667 77.9343 364.656 73.0748 374.578C65.608 389.829 110.119 402.474 110.119 402.474C110.119 402.474 91.0114 402.27 94.527 412.566C99.8287 428.093 190.32 420.219 190.32 420.219Z" fill="#28E4C9"/>
<path d="M155.431 309.573L156.721 308.692C133.32 273.253 126.177 231.176 124.305 202.118C122.274 170.586 125.839 147.148 125.876 146.916L124.278 146.451C124.241 146.687 120.649 170.28 122.687 202.001C124.571 231.306 131.781 273.756 155.431 309.573Z" fill="#FF6C4A"/>
<path d="M130.483 141.396C130.534 148.514 128.064 154.4 124.121 157.931C120.116 152.84 117.555 145.966 117.504 138.848C117.453 131.728 119.923 125.842 123.866 122.311C127.87 127.402 130.432 134.276 130.483 141.396Z" fill="#FF6C4A"/>
<path d="M117.807 157.399C121.796 163.693 123.433 170.761 122.788 176.826C117.313 175.268 111.802 171.054 107.813 164.76C103.824 158.467 102.187 151.399 102.832 145.331C108.307 146.889 113.819 151.102 117.807 157.399Z" fill="#FF6C4A"/>
<path d="M111.414 176.517C117.155 180.509 121.304 186.512 123.209 192.756C118.16 194.164 112.019 193.01 106.278 189.015C100.536 185.023 96.3865 179.021 94.4824 172.777C99.5318 171.368 105.672 172.523 111.414 176.517Z" fill="#FF6C4A"/>
<path d="M118.902 209.896C121.406 211.389 123.308 213.785 124.284 216.359C122.229 217.125 119.644 216.844 117.14 215.348C114.636 213.855 112.733 211.458 111.757 208.885C113.813 208.119 116.398 208.4 118.902 209.896Z" fill="#FF6C4A"/>
<path d="M120.937 222.259C123.44 223.755 125.343 226.149 126.32 228.725C124.264 229.489 121.679 229.208 119.175 227.715C116.671 226.221 114.769 223.825 113.792 221.249C115.848 220.485 118.433 220.766 120.937 222.259Z" fill="#FF6C4A"/>
<path d="M131.27 172.209C135.897 169.588 141.307 169.616 146.105 171.783C145.301 177.127 142.419 181.853 137.793 184.473C133.167 187.096 127.757 187.067 122.958 184.901C123.762 179.558 126.644 174.832 131.27 172.209Z" fill="#FF6C4A"/>
<path d="M132.194 190.837C136.82 188.216 142.23 188.244 147.029 190.411C146.225 195.752 143.343 200.481 138.717 203.101C134.09 205.722 128.681 205.695 123.882 203.527C124.686 198.184 127.568 193.458 132.194 190.837Z" fill="#FF6C4A"/>
<path d="M131.276 217.496C134.287 215.791 137.809 215.809 140.932 217.22C140.408 220.696 138.533 223.772 135.522 225.48C132.511 227.185 128.989 227.167 125.866 225.756C126.39 222.279 128.265 219.203 131.276 217.496Z" fill="#FF6C4A"/>
<path d="M461.482 322.592C464.199 323.034 464.04 323.477 464.389 323.525C464.802 323.58 469.709 321.116 469.709 321.116C469.709 321.116 484.226 313.951 484.995 313.535L495.472 300.352L503.548 304.078C503.548 304.078 491.764 318.092 491.018 318.709C490.274 319.326 469.46 326.626 467.651 327.33C467.651 327.33 465.824 328.997 464.645 330.005C463.463 331.011 461.885 331.411 461.509 331.64C461.452 331.675 460.15 332.362 458.309 332.763C456.723 333.109 458.045 332.031 458.045 332.031C458.045 332.031 460.852 330.847 460.713 330.633C460.606 330.466 459.115 331.207 457.365 331.608C456.915 331.71 456.469 331.812 456.061 331.899C454.986 332.131 454.516 331.516 455.593 331.088C455.974 330.939 456.614 330.702 457.097 330.603C457.617 330.493 458.055 330.219 458.475 330.06C459.312 329.742 459.926 329.52 459.894 329.493C459.849 329.455 459.969 329.269 459.486 329.363C458.908 329.478 457.739 329.998 456.873 330.095C456.382 330.152 455.364 330.331 455.364 330.331C455.364 330.331 453.563 330.503 453.55 330.252C453.525 329.699 454.633 329.393 455.315 329.406C455.743 329.187 456.82 329.03 456.82 329.03C456.82 329.03 458.908 328.204 458.786 327.895C458.739 327.773 457.475 327.962 456.133 328.054C454.715 328.151 453.687 328.151 453.61 327.875C453.49 327.44 454.62 327.275 454.62 327.275C454.62 327.275 455.616 327.131 455.942 327.056C456.323 326.969 457.445 326.616 457.445 326.616C457.445 326.616 461.288 325.205 461.148 324.923C461.009 324.64 460.374 324.045 460.103 324.047C459.832 324.047 459.349 324.319 459.078 324.321C458.806 324.321 458.224 324.269 458.184 323.928C458.142 323.587 459.648 322.883 459.648 322.883C459.648 322.883 460.695 322.465 461.482 322.592Z" fill="#F8A492"/>
<path d="M488.181 308.518C488.181 308.518 490.796 310.892 491.884 311.673C492.787 312.323 497.192 314.446 497.192 314.446C497.192 314.446 501.572 307.736 503.489 304.372C505.813 300.288 507.423 294.218 506.873 294.053C505.33 293.59 503.21 293.309 501.251 294.208C494.472 297.319 488.181 308.518 488.181 308.518Z" fill="#00385F"/>
<path d="M464.02 326.098C462.855 326.282 461.666 326.061 461.15 324.995C461.036 326.26 462.95 326.887 464.02 326.098Z" fill="#FE875E"/>
<path d="M139.137 279.032C139.298 275.124 138.725 271.264 136.984 267.628C135.487 264.498 131.781 262.721 128.401 262.718C117.67 262.703 116.305 276.944 109.474 282.436C107.387 284.114 105.053 285.48 103.078 287.292C95.785 293.974 99.0701 306.345 105.767 312.206C110.414 316.27 117.718 318.582 123.446 315.402C126.436 313.744 128.705 310.987 130.322 307.963C132.617 303.675 134.097 298.727 135.729 294.156C137.466 289.29 138.922 284.226 139.137 279.032Z" fill="#13375B"/>
<path d="M140.889 297.953C137.537 287.784 133.112 287.944 133.112 287.944L136.688 309.595C138.758 309.031 141.453 307.771 143.52 307.186C142.835 303.971 141.715 300.457 140.889 297.953Z" fill="white"/>
<path d="M157.831 332.633L145.576 323.286C145.576 323.286 144.343 314.563 142.692 306.826C140.625 307.408 138.759 309.031 136.688 309.595L139.805 326.927L155.866 335.214L160.403 341.043L161.435 335.057L157.831 332.633Z" fill="#F48C7F"/>
<path d="M269.536 318.032C273.342 318.032 276.91 319.035 279.999 320.79C280.39 321.011 280.813 321.213 281.263 321.399C290.68 325.267 300.984 318.104 300.984 307.923V257.858H250.918C240.737 257.858 233.575 247.552 237.442 238.137C237.629 237.684 237.83 237.261 238.052 236.871C239.806 233.785 240.809 230.213 240.809 226.408C240.809 214.35 230.755 204.639 218.572 205.204C207.548 205.714 198.67 214.771 198.362 225.803C198.253 229.725 199.209 233.416 200.963 236.609C201.182 237.005 201.382 237.435 201.566 237.893C205.402 247.465 198.125 257.858 187.814 257.858H138.179V371.938C138.179 398.848 159.994 420.661 186.904 420.661H300.984V370.763C300.984 360.532 290.648 353.325 281.171 357.18C280.718 357.364 280.292 357.565 279.902 357.784C276.525 359.681 272.58 360.679 268.384 360.457C257.573 359.885 248.843 351.1 248.333 340.289C247.758 328.096 257.471 318.032 269.536 318.032Z" fill="#FF6C4A"/>
<path d="M378.045 290.261C378.222 286.458 379.392 282.939 381.288 279.938C381.527 279.557 381.748 279.144 381.955 278.703C386.258 269.478 379.586 258.851 369.417 258.375L319.404 256.036L317.067 306.049C316.592 316.218 305.962 322.89 296.737 318.587C296.296 318.381 295.883 318.159 295.502 317.92C292.501 316.024 288.982 314.854 285.179 314.677C273.134 314.115 262.965 323.704 262.96 335.899C262.955 346.936 271.586 356.226 282.593 357.05C286.506 357.341 290.239 356.557 293.506 354.955C293.914 354.756 294.355 354.576 294.82 354.415C304.561 351.027 314.601 358.782 314.12 369.083L311.801 418.663L425.756 423.991C452.637 425.248 475.448 404.475 476.705 377.594L482.031 263.639L432.187 261.31C421.968 260.832 414.286 270.819 417.693 280.465C417.857 280.928 418.039 281.361 418.238 281.762C419.975 285.224 420.786 289.21 420.371 293.392C419.293 304.163 410.112 312.475 399.286 312.48C387.082 312.485 377.48 302.311 378.045 290.261Z" fill="white"/>
<path d="M238.691 211.516C238.882 215.316 238.061 218.932 236.463 222.103C236.262 222.503 236.08 222.936 235.918 223.397C232.529 232.996 240.199 242.928 250.365 242.415L300.368 239.902L297.855 189.899C297.344 179.732 307.274 172.06 316.873 175.449C317.334 175.611 317.767 175.793 318.167 175.994C321.338 177.592 324.954 178.413 328.757 178.224C340.8 177.617 349.993 167.087 348.816 154.95C347.753 143.965 338.264 135.553 327.229 135.799C323.304 135.886 319.668 137.029 316.567 138.94C316.181 139.179 315.763 139.4 315.313 139.607C305.948 143.917 295.204 137.173 294.686 126.875L292.193 77.3022L178.257 83.0312C151.381 84.3826 130.689 107.266 132.04 134.142L137.769 248.077L187.606 245.571C197.823 245.058 204.502 234.372 200.176 225.101C199.97 224.658 199.747 224.245 199.508 223.865C197.446 220.587 196.251 216.697 196.262 212.496C196.29 201.67 204.625 192.509 215.398 191.457C227.544 190.27 238.086 199.465 238.691 211.516Z" fill="#28E4C9"/>
<path d="M341.036 183.918C337.228 183.918 333.659 182.915 330.571 181.161C330.182 180.939 329.759 180.738 329.306 180.551C319.892 176.684 309.586 183.846 309.586 194.028V244.093H359.654C369.833 244.093 376.995 254.399 373.128 263.816C372.943 264.266 372.739 264.689 372.518 265.08C370.763 268.166 369.76 271.737 369.76 275.543C369.76 287.6 379.815 297.311 391.999 296.746C403.022 296.236 411.902 287.18 412.208 276.147C412.317 272.225 411.362 268.534 409.607 265.341C409.388 264.946 409.189 264.515 409.005 264.057C405.167 254.486 412.444 244.093 422.757 244.093H472.392V130.013C472.392 103.103 450.576 81.2892 423.666 81.2892H309.586V131.188C309.586 141.419 319.924 148.626 329.399 144.771C329.851 144.587 330.277 144.385 330.67 144.164C334.045 142.27 337.992 141.272 342.188 141.493C352.996 142.066 361.727 150.849 362.237 161.662C362.814 173.854 353.098 183.918 341.036 183.918Z" fill="#00385F"/>
<path d="M105.591 404.833C105.591 404.833 104.835 410.089 103.535 411.784C103.098 412.354 102.3 413.073 101.777 414.104C100.962 415.704 101.413 418.088 102.014 419.402C102.322 420.077 101.992 420.074 102.695 420.293C104.775 420.935 106.988 419.853 107.874 417.854C108.369 416.739 108.803 415.251 108.89 413.377C109.113 408.604 110.593 406.177 110.593 406.177L105.591 404.833Z" fill="#F7A491"/>
<path d="M128.347 407.237C128.347 407.237 128.813 413.163 128.435 415.089C128.232 416.122 127.102 418.245 127.62 419.215C128.138 420.186 128.731 420.427 128.731 420.427L142.163 420.646C142.895 420.656 142.411 420.186 141.821 419.75C140.856 419.039 140.076 418.568 136.992 417.073C136.791 416.975 136.058 416.508 135.794 416.346C135.124 415.938 134.452 415.291 133.873 414.646C132.908 413.568 132.824 408.35 132.824 408.35L128.347 407.237Z" fill="#F7A491"/>
<path d="M138.845 328.455C138.845 328.455 140.536 338.076 139.426 344.385C138.315 350.694 132.985 409.173 132.985 409.173L127.061 409.507C127.061 409.507 125.819 385.08 126.041 381.683C126.263 378.286 128.021 372.602 128.021 372.602L127.431 352.879L134.907 326.969L138.845 328.455Z" fill="#00385F"/>
<path d="M121.435 326.429C121.435 326.429 116.771 333.467 115.66 339.291C114.55 345.114 116.476 363.011 114.339 370.643C113.182 374.772 108.799 381.153 108.133 386.492C107.467 391.83 104.853 405.811 104.853 405.811L110.774 406.989L124.535 372.067L135.329 340.503L138.094 324.247L121.435 326.429Z" fill="#00385F"/>
<path d="M125.211 286.393C125.211 286.393 119.035 286 116.592 288.668C114.148 291.338 122.012 312.453 122.456 315.85C122.9 319.247 120.191 328.278 120.191 328.278C120.191 328.278 134.699 331.205 138.845 328.455C138.845 328.455 139.29 304.026 138.845 301.599C138.401 299.173 134.699 289.305 133.81 288.335C132.922 287.364 125.211 286.393 125.211 286.393Z" fill="white"/>
<path d="M127.266 278.123C127.266 278.123 127.234 278.305 127.177 278.614C126.901 280.102 125.841 285.04 125.125 286.396C124.259 288.038 128.089 293.267 131.774 292.63C132.871 292.438 130.847 287.824 130.944 287.334C131.13 286.398 131.383 285.122 131.641 283.813C131.787 283.073 131.935 282.324 132.073 281.62C132.468 279.619 132.789 277.984 132.789 277.984L127.266 278.123Z" fill="#F7A491"/>
<path d="M127.178 278.614C127.235 278.305 127.268 278.123 127.268 278.123L132.791 277.984C132.791 277.984 132.469 279.619 132.075 281.62C131.937 282.319 131.79 283.066 131.645 283.8C130.792 283.673 129.901 283.258 129.008 282.474C128.034 281.62 127.396 280.595 127.011 279.497C127.079 279.146 127.135 278.845 127.178 278.614Z" fill="#F47458"/>
<path d="M130.984 265.541C130.984 265.541 128.381 265.239 126.749 267.355C125.118 269.47 123.359 276.01 127.412 279.567C131.466 283.123 135.471 279.096 136.065 274.828C136.659 270.56 136.889 265.386 130.984 265.541Z" fill="#F7A491"/>
<path d="M137.263 274.766C136.78 275.709 135.967 276.232 135.449 275.933C134.931 275.634 134.904 274.626 135.388 273.683C135.871 272.743 136.683 272.22 137.201 272.519C137.719 272.817 137.747 273.823 137.263 274.766Z" fill="#F7A491"/>
<path d="M131.275 264.841C131.275 264.841 127.798 271.06 125.31 271.349C122.822 271.635 122.495 274.94 122.495 274.94C122.495 274.94 123.384 267.325 125.847 265.856C128.31 264.388 131.275 264.841 131.275 264.841Z" fill="#13375B"/>
<path d="M108.277 416.804C105.05 417.394 102.903 415.502 101.785 414.086C100.965 415.689 100.565 418.083 101.168 419.402C101.7 420.564 103.253 420.53 104.475 420.577C105.768 420.624 106.768 419.905 107.41 418.775C107.709 418.25 108.018 417.593 108.277 416.804Z" fill="#F47458"/>
<path d="M135.792 416.346C132.239 417.259 129.614 416.637 128.145 416.045C127.766 417.12 127.264 418.471 127.53 419.248C127.856 420.201 128.32 420.417 128.73 420.427C131.975 420.514 140.616 420.629 143.09 420.661C143.436 420.666 143.626 420.263 143.405 419.997C142.791 419.263 136.057 416.508 135.792 416.346Z" fill="#F47458"/>
<path d="M125.962 272.912C126.164 274.017 125.757 275.03 125.053 275.174C124.349 275.318 123.614 274.542 123.411 273.437C123.209 272.332 123.616 271.319 124.32 271.175C125.024 271.028 125.759 271.807 125.962 272.912Z" fill="#F7A491"/>
<path d="M130.025 276.737L133.165 276.879C133.165 276.879 133.038 278.068 131.656 278.046C129.97 278.019 130.025 276.737 130.025 276.737Z" fill="white"/>
<path d="M397.799 26.3435C398.192 26.3585 399.262 26.7168 400.83 29.6784C402.831 33.4612 405.755 44.8844 405.755 44.8844L397.025 48.1346L395.902 45.7505L394.056 27.3938C394.056 27.3938 397.692 26.3386 397.799 26.3435Z" fill="#FF6C4A"/>
<path d="M386.259 24.696C388.757 24.6985 394.932 25.4277 397.799 26.3435C397.799 26.3435 399.907 44.4439 395.902 58.199C395.009 61.2775 396.644 70.9611 396.644 70.9611L370.776 70.6201C370.776 70.6201 373.842 47.2089 372.688 43.426C371.533 39.6457 371.506 26.4655 371.506 26.4655C371.506 26.4655 371.682 26.4381 377.317 25.4625C379.945 25.0096 383.596 24.6911 386.259 24.696Z" fill="#FF6C4A"/>
<path d="M383.244 104.559C383.244 104.559 383.817 111.164 384.869 112.993C385.922 114.822 384.815 117.93 384.76 118.358C384.703 118.784 382.545 119.394 379.111 119.028C375.676 118.662 375.731 117.871 376.01 116.589C376.286 115.31 378.113 113.662 378.225 112.443C378.334 111.223 377.172 106.836 377.172 106.836L383.244 104.559Z" fill="#F7A491"/>
<path d="M393.725 65.5108C393.725 65.5108 411.581 64.5203 415.57 66.9343C419.557 69.3484 412.736 81.1996 412.736 81.1996C412.736 81.1996 400.312 80.6272 375.975 82.0333C370.211 82.3643 369.714 67.0065 370.791 65.7348C371.869 64.4631 393.725 65.5108 393.725 65.5108Z" fill="white"/>
<path d="M378.683 119.541C375.146 119.165 375.584 117.428 375.868 116.109C376.047 115.282 377.063 114.309 377.667 113.391C377.984 113.642 378.496 114.085 380.032 114.541C381.627 115.011 383.812 114.078 385.206 113.495C385.701 115.342 385.723 117.699 385.676 118.055C385.621 118.495 382.217 119.919 378.683 119.541Z" fill="#FF6C4A"/>
<path d="M380.634 78.2853C381.348 83.6833 384.88 110.559 384.88 110.559L376.684 111.574C376.684 111.574 366.605 76.4959 367.123 71.1303C367.638 65.7671 371.411 65.3142 371.411 65.3142C371.411 65.3142 378.745 63.9952 380.634 78.2853Z" fill="white"/>
<path d="M371.223 28.4765C373.64 27.5706 374.825 49.3617 375.151 58.331C379.434 58.7441 386.9 58.3334 388.756 58.1941C389.632 58.1294 391.648 57.3902 392.517 57.2782C393.408 57.1612 394.217 57.099 394.655 57.1762C394.814 57.2036 399.279 59.0303 399.659 59.4309C400.135 59.9262 401.414 61.178 401.197 61.7205C400.983 62.2606 398.736 60.2124 398.736 60.2124L397.639 59.5952C399.005 60.9292 401.611 62.6887 401.237 63.3283C400.869 63.9529 398.52 62.1685 396.842 60.954C398.281 62.2506 400.065 64.5751 399.654 64.936C399.284 65.262 397.253 62.5717 395.083 61.7977C394.279 61.5115 393.475 62.3054 392.843 62.4025C392.377 62.4721 391.661 62.6215 391.203 62.492L388.853 61.8276C388.052 61.8998 388.032 62.3726 387.223 62.5443C386.285 62.7434 384.745 62.955 383.55 63.2461C376.664 64.9285 374.369 65.71 372.261 65.71C365.878 65.705 365.507 30.6217 371.223 28.4765Z" fill="#F7A491"/>
<path d="M366.632 48.936C366.179 39.7477 366.246 28.4241 371.398 26.4929C373.429 25.7288 377.012 30.313 376.368 49.1227C373.618 49.3491 369.581 49.5333 366.632 48.936Z" fill="#FF6C4A"/>
<path d="M407.213 110.208C407.213 110.208 406.496 112.503 407.778 114.018C409.057 115.534 414.378 117.022 415.077 117.843C415.777 118.665 415.722 119.364 415.722 119.364L400.787 118.953L400.951 114.441L401.638 111.201L407.213 110.208Z" fill="#F7A491"/>
<path d="M408.706 114.772C408.706 114.772 404.868 116.325 403.014 115.407C401.16 114.489 401.217 114.232 400.68 114.576C400.145 114.919 399.953 119.147 399.953 119.147L416.744 119.64C417.914 119.613 418.504 118.752 417.556 118.015C416.904 117.51 416.152 117.171 415.724 116.927C414.41 116.173 408.706 114.772 408.706 114.772Z" fill="#FF6C4A"/>
<path d="M406.646 69.7441C407.801 67.3127 410.426 64.152 415.045 66.0559C419.45 67.8726 420.632 72.3374 419.244 76.9091C417.853 81.4809 408.702 108.359 408.383 112.055L401.076 112.104C401.076 112.104 402.405 90.821 402.731 85.6768C403.045 80.7268 404.647 73.9476 406.646 69.7441Z" fill="white"/>
<path d="M418.507 44.989H394.083C393.438 44.989 392.856 45.3797 392.609 45.9795L385.091 64.3834H371.625C371.249 64.3834 370.945 64.6896 370.945 65.0678C370.945 65.4436 371.249 65.7498 371.625 65.7498H409.948C411.001 65.7498 411.957 65.1301 412.387 64.1644L419.96 47.2413C420.433 46.1836 419.662 44.989 418.507 44.989Z" fill="black"/>
<path d="M405.357 55.7053C405.193 56.5316 404.473 57.0841 403.752 56.9397C403.032 56.7954 402.579 56.0065 402.744 55.1802C402.91 54.354 403.63 53.8015 404.351 53.9458C405.071 54.0902 405.524 54.8791 405.357 55.7053Z" fill="white"/>
<path d="M392.064 2.58886C391.327 2.33998 390.603 2.05879 389.904 1.72281C389.113 1.34204 388.087 0.894058 387.44 0.79451C386.076 0.58297 383.734 0.724825 382.44 2.12597C380.83 3.87552 377.968 2.44203 378.545 11.5955C379.198 21.956 384.959 20.8186 385.098 20.6419C385.238 20.4677 390.235 14.0145 390.235 14.0145C390.235 14.0145 391.982 17.8371 391.982 17.6978C391.982 17.5609 400.904 5.56535 392.064 2.58886Z" fill="#0E2E35"/>
<path d="M387.689 21.4084L388.187 25.1091C388.187 25.1091 389.302 30.4424 387.868 31.4703C386.435 32.4981 381.773 24.9573 381.773 24.9573L382.266 15.5774L387.689 21.4084Z" fill="#F7A491"/>
<path d="M382.107 18.6162C383.292 21.8166 386.112 23.7827 388.113 24.5468L387.69 21.4085L382.267 15.5775L382.107 18.6162Z" fill="#F47458"/>
<path d="M387.395 5.36872C390.431 4.88094 393.156 7.32235 393.079 10.3611C393.047 11.6826 392.94 13.3325 392.664 15.1095C392.004 19.3826 389.087 23.1455 387.161 22.8095C385.232 22.4736 380.382 18.7878 381.236 12.7079C381.763 8.95242 384.21 5.88389 387.395 5.36872Z" fill="#F7A491"/>
<path d="M382.576 13.4322C382.414 14.373 381.66 15.025 380.893 14.8931C380.129 14.7587 379.639 13.8877 379.803 12.9494C379.965 12.0087 380.717 11.3566 381.483 11.4885C382.25 11.6229 382.737 12.494 382.576 13.4322Z" fill="#F7A491"/>
<path d="M381.483 11.4885C381.483 11.4885 383.815 12.0684 384.678 10.5702C385.544 9.06948 388.638 5.83665 392.567 7.17557C396.5 8.51698 389.108 3.91537 388.795 3.91537C388.479 3.91537 384.706 3.888 384.706 3.888C384.706 3.888 381.796 6.2821 381.692 6.54591C381.585 6.80722 380.746 9.67424 380.746 9.67424L381.483 11.4885Z" fill="#0E2E35"/>
<path d="M385.747 17.7451L389.988 18.5539C389.988 18.5539 389.583 20.1517 387.709 19.8505C385.421 19.4822 385.747 17.7451 385.747 17.7451Z" fill="white"/>
<path d="M314.006 313.022C314.168 313.582 314.26 313.766 314.466 314.142C315.795 316.564 318.881 320.018 318.881 320.018L321.27 314.64C321.27 314.64 320.88 312.95 320.205 310.536C317.901 311.138 315.703 311.487 314.006 313.022Z" fill="#F8A492"/>
<path d="M327.691 308.359C327.691 308.359 314.377 314.093 313.946 313.983C313.67 313.911 308.486 305.235 308.429 297.075C308.404 293.307 312.319 288.772 316.684 289.671C318.884 290.121 318.849 290.734 322.102 295.46C325.355 300.186 327.691 308.359 327.691 308.359Z" fill="#2A95FF"/>
<path d="M339.055 411.15L338.739 416.388C338.622 417.053 338.164 418.693 338.164 419.298C338.164 421.565 348.93 417.371 346.519 416.366C346.3 416.276 345.155 415.589 345.083 414.818C344.973 413.628 344.692 411.222 344.692 411.222L339.055 411.15Z" fill="#F7A491"/>
<path d="M346.491 416.346C346.491 416.346 343.963 417.038 342.669 417.212C341.375 417.386 339.667 415.925 338.752 416.321C337.744 416.754 337.783 420.661 337.783 420.661C337.783 420.661 351.337 421.774 355.15 420.624C356.66 420.166 351.658 417.961 346.491 416.346Z" fill="#DD513A"/>
<path d="M317.033 411.15L316.714 416.388C316.6 417.053 316.142 418.693 316.142 419.298C316.142 421.565 326.908 417.371 324.494 416.366C324.277 416.276 322.794 415.074 322.722 414.303C322.61 413.116 322.669 411.222 322.669 411.222L317.033 411.15Z" fill="#F7A491"/>
<path d="M324.469 416.346C324.469 416.346 321.941 417.038 320.647 417.212C319.352 417.386 317.645 415.925 316.729 416.321C315.721 416.754 315.682 420.661 315.682 420.661C315.682 420.661 329.297 421.958 333.127 420.624C334.613 420.104 329.636 417.961 324.469 416.346Z" fill="#DD513A"/>
<path d="M320.322 315.922L329.804 302.637C329.844 302.523 329.931 302.284 330.063 301.92C330.541 300.601 331.534 297.859 332.4 295.131L332.407 295.101C332.681 294.148 333.256 292.486 333.814 290.875C334.433 289.086 335.202 286.866 335.23 286.488C335.207 286.423 335.162 286.306 335.103 286.152C334.754 285.251 334.284 283.101 334.117 282.168C334.013 281.573 333.906 280.124 334.615 280.124C335.725 280.124 335.197 281.57 335.71 282.471C335.897 281.869 336.277 280.672 336.479 279.462L336.666 276.638C336.7 276.426 336.474 274.868 337.255 274.868H337.293C337.992 274.92 337.977 276.575 338.268 279.378C338.36 279.054 338.452 278.666 338.522 278.31C338.515 278.118 338.654 277.275 338.759 276.832C338.619 276.05 338.701 274.818 339.533 274.935C339.948 274.993 339.913 276.712 339.913 276.712C339.911 276.946 339.886 278.763 339.898 279.124C339.983 278.514 340.317 275.913 340.969 275.913C341.509 275.913 341.553 276.613 341.541 277.168C341.536 277.494 341.195 280.311 341.178 280.639C341.431 280.211 341.733 277.73 341.986 277.73C343.039 277.73 342.658 281.259 342.27 282.177C342.235 282.272 342.195 282.456 342.151 282.67C342.019 283.3 341.8 284.353 341.247 285.296C340.585 286.428 339.672 288.23 339.533 288.506C339.431 289.069 339.112 291.092 338.714 293.638C338.542 294.726 338.355 295.92 338.161 297.157L338.151 297.155C338.114 297.423 337.917 298.274 337.166 301.467C336.14 305.838 336.033 306.027 335.989 306.106C335.543 306.895 325.32 320.777 324.884 321.37L324.628 321.718L320.322 315.922Z" fill="#F7A491"/>
<path d="M337.957 284.942C337.957 284.942 337.188 282.974 335.819 282.969C335.819 282.969 336.583 282.692 337.24 283.212C337.897 283.733 337.957 284.942 337.957 284.942Z" fill="#F47458"/>
<path d="M318.033 281.14L316.812 288.857C316.812 288.857 321.463 292.593 324.173 291.804C326.448 291.144 324.89 288.17 324.89 288.17C324.89 288.17 323.678 284.049 324.049 281.889C324.419 279.728 318.033 281.14 318.033 281.14Z" fill="#F7A491"/>
<path d="M318.908 283.472C320.073 284.024 322.378 284.773 324.172 284.957C324 283.875 323.903 282.732 324.048 281.889C324.219 280.893 322.95 280.657 321.536 280.692C319.682 280.848 318.032 281.14 318.032 281.14L317.796 282.623C318.149 282.994 318.52 283.29 318.908 283.472Z" fill="#FE875E"/>
<path d="M312.162 272.235C311.97 272.235 314.001 280.858 317.144 282.341C320.285 283.825 324.971 283.053 325.85 280.729C326.823 278.16 323.276 269.363 318.857 268.245C314.437 267.128 312.162 272.235 312.162 272.235Z" fill="#F7A491"/>
<path d="M315.798 264.311C313.289 265.759 312.137 267.907 311.749 268.786C310.572 269.346 309.145 270.553 308.461 273.813C307.62 277.817 310.611 280.906 313.782 281.834C316.953 282.762 317.443 284.86 317.443 284.86L317.804 282.603C317.804 282.603 317.097 280.637 316.037 279.651C314.977 278.668 316.539 277.235 316.676 276.065C316.783 275.164 316.119 273.415 316.263 271.936C316.263 271.936 318.025 269.266 319.762 268.606C322.724 267.481 319.018 262.454 315.798 264.311Z" fill="#13375B"/>
<path d="M317.134 277.566C317.545 278.561 317.376 279.552 316.758 279.776C316.141 279.997 315.307 279.373 314.897 278.377C314.486 277.382 314.653 276.391 315.273 276.167C315.89 275.943 316.724 276.57 317.134 277.566Z" fill="#F7A491"/>
<path d="M328.839 316.133L347.128 313.152C347.128 313.152 345.048 307.913 344.304 307.913C343.56 307.913 330.474 313.627 330.474 313.627L329.434 315.715L328.839 316.133Z" fill="#F8A492"/>
<path d="M319.471 328.674C319.471 328.674 317.647 337.494 318.388 344.183C319.132 350.871 319.192 374.628 319.192 374.628L316.353 412.64L323.084 412.787C323.084 412.787 331.068 374.792 330.919 375.768C330.772 376.743 333.597 349.017 333.597 349.017L324.08 327.838L319.471 328.674Z" fill="#00385F"/>
<path d="M321.255 328.256C321.255 328.256 320.066 336.197 321.552 339.681C323.04 343.166 334.306 377.343 334.456 380.128C334.605 382.915 338.35 413.715 338.35 413.715L346.177 413.496L347.872 379.252L344.326 336.212L340.884 325.329L321.255 328.256Z" fill="#00385F"/>
<path d="M316.812 288.857C316.812 288.857 318.743 290.124 320.542 289.977C322.344 289.833 324.89 288.17 324.89 288.17L324.534 286.971C324.534 286.971 319.878 286.291 319.761 286.366C319.644 286.438 316.812 288.857 316.812 288.857Z" fill="#F7A491"/>
<path d="M337.386 307.654C337.386 307.654 344.304 314.185 347.428 313.07C350.551 311.955 351.843 308.145 344.222 302.57C337.403 297.58 337.386 307.654 337.386 307.654Z" fill="#F8A492"/>
<path d="M342.073 315.715C341.045 310.126 333.597 292.727 333.002 289.522C332.713 287.964 328.694 287.929 324.869 288.133C320.827 288.347 316.81 288.857 316.81 288.857C316.81 288.857 313.232 289.447 311.659 290.92C310.083 292.396 309.665 296.475 311.928 304.22C313.714 310.335 315.929 313.692 317.027 318.144C317.248 319.638 317.438 321.111 317.691 322.833C318.092 329.493 317.686 338.288 317.686 338.288C317.686 338.288 337.165 342.33 344.452 336.197C344.452 336.197 343.126 321.444 342.073 315.715Z" fill="#2A95FF"/>
<path d="M347.038 303.695C347.038 303.695 339.396 310.004 338.95 310.004C338.664 310.004 328.042 302.192 325.591 295.773C324.237 292.224 327.079 288.255 330.324 288.267C332.577 288.277 333.577 288.857 338.037 292.618C342.499 296.38 347.038 303.695 347.038 303.695Z" fill="#2A95FF"/>
<path d="M212.579 22.0555C213.831 19.0417 215.105 16.0204 218.355 14.4948C220.985 13.2604 223.733 13.7258 226.07 15.4828C232.693 20.4602 226.921 25.9478 234.46 35.39C236.801 38.3242 239.636 40.6934 241.04 44.1303C243.003 48.9435 240.664 51.253 236.913 53.5575C218.973 64.5875 209.569 41.9453 209.906 36.7638C210.158 32.9113 211.772 23.9967 212.579 22.0555Z" fill="#13375B"/>
<path d="M193.96 80.7441C194.717 80.6246 196.553 79.3081 197.202 79.1886C197.705 79.0966 198.792 78.9323 199.255 78.8626C199.822 76.7423 202.704 65.1922 203.027 61.805C203.376 58.1367 205.97 42.2662 205.97 42.2662L212.688 43.4882C212.688 43.4882 209.898 55.6978 209.126 61.6159C208.464 66.7003 202.885 78.1334 202.176 79.3404C202.175 79.3678 202.175 79.3977 202.173 79.4275C202.065 81.2219 201.2 80.6246 201.2 80.6246L199.796 80.983C199.796 80.983 194.825 81.4608 194.5 81.5803C194.176 81.6997 193.204 80.8635 193.96 80.7441Z" fill="#F7A491"/>
<path d="M211.827 32.9909C207.078 34.6011 204.378 47.51 204.378 47.51C204.378 47.51 211.828 49.5881 213.737 48.498C213.737 48.498 215.904 38.8941 216.68 39.2301L211.827 32.9909Z" fill="#2A95FF"/>
<path d="M175.095 103.048C173.642 106.881 172.888 110.571 172.82 111.017C172.788 111.233 173.091 112.274 173.063 112.498C170.146 116.474 165.954 117.346 162.361 117.599C164.193 115.812 166.882 114.118 167.011 113.55C167.216 112.649 168.323 108.638 168.867 103.075C171.101 104.111 172.618 103.289 175.095 103.048Z" fill="#F7A491"/>
<path d="M216.422 60.1776L222.839 78.2531C222.839 78.2531 212.527 80.1942 208.671 80.901C204.816 81.6078 183.275 82.5486 182.729 82.9318C182.324 83.2155 177.874 97.6077 175.886 105.542C173.631 106.039 169.771 105.442 167.718 104.735C168.827 93.3794 172.835 75.3911 174.118 73.4324C176.207 70.2444 216.422 60.1776 216.422 60.1776Z" fill="#00385F"/>
<path d="M191.352 110.972C190.643 115.006 190.594 118.774 190.611 119.225C190.619 119.444 191.112 120.409 191.126 120.633C189.007 125.088 185.052 126.728 181.57 127.651C183.034 125.551 185.358 123.383 185.379 122.803C185.412 121.88 185.747 117.729 185.239 112.167C187.628 112.761 188.964 111.674 191.352 110.972Z" fill="#F7A491"/>
<path d="M223.913 61.1158L226.404 65.3665C230.192 71.8396 227.288 80.1668 220.295 82.8795C220.257 82.8944 220.22 82.9093 220.183 82.9243C216.529 84.3403 195.546 89.3028 195.081 89.7806C194.736 90.134 193.062 105.106 192.597 113.274C190.475 114.182 186.572 114.322 184.422 114.011C183.384 102.65 183.949 84.2284 184.843 82.0632C186.298 78.5392 223.913 61.1158 223.913 61.1158Z" fill="#00385F"/>
<path d="M190.29 119.351C190.848 118.734 192.9 122.131 193.412 122.855C193.988 123.669 193.824 124.284 193.755 124.411C193.574 124.747 182.758 131.111 180.12 131.563C179.871 131.606 179.439 131.449 179.33 131.354C178.299 130.441 183.044 123.702 185.175 122.818C186.552 122.246 187.776 122.126 190.29 119.351Z" fill="#13375B"/>
<path d="M172.474 111.139C173.139 110.638 174.517 114.359 174.885 115.165C175.299 116.074 175.022 116.649 174.93 116.761C174.689 117.057 162.872 121.28 160.196 121.23C159.944 121.225 159.549 120.989 159.46 120.875C158.618 119.787 164.542 114.055 166.801 113.585C168.261 113.281 169.485 113.396 172.474 111.139Z" fill="#13375B"/>
<path d="M216.33 32.9535H216.33C216.207 32.9535 216.032 32.9112 215.851 32.854C214.97 32.6972 213.042 32.4658 211.541 33.0979C209.716 33.8669 206.889 41.0618 207.057 48.4433C207.125 49.5731 207.193 50.5836 207.251 51.2879C207.712 56.865 209.312 67.33 209.398 67.3873C211.575 68.7884 224.707 63.3556 225.61 62.1635C226.514 60.9689 227.046 46.4722 227.484 45.7505L228.348 33.1427C226.825 32.6898 218.665 32.9361 216.33 32.9535Z" fill="#2A95FF"/>
<path d="M221.653 28.3097C221.653 28.3097 220.807 32.6824 220.977 34.4095C221.146 36.1342 220.332 41.694 216.68 41.7114C213.028 41.7313 215.987 34.6435 216.331 32.9536C216.675 31.2613 216.756 26.0301 216.756 26.0301L221.653 28.3097Z" fill="#F7A491"/>
<path d="M216.681 28.6555C216.738 27.222 216.756 26.0299 216.756 26.0299L221.653 28.3096C221.653 28.3096 221.48 29.2055 221.306 30.3429C219.163 30.7734 217.609 29.982 216.681 28.6555Z" fill="#F47458"/>
<path d="M223.442 16.2393C223.442 16.2393 225.329 17.2871 226.018 19.5543C226.71 21.824 225.924 27.6774 221.049 29.091C216.175 30.5046 214.063 25.8681 215.067 22.2446C216.071 18.6185 218.255 14.0294 223.442 16.2393Z" fill="#F7A491"/>
<path d="M214.458 20.8385C214.553 21.8116 215.091 22.5557 215.658 22.5009C216.225 22.4462 216.607 21.61 216.512 20.6369C216.416 19.6639 215.879 18.9197 215.312 18.9745C214.745 19.0317 214.363 19.8654 214.458 20.8385Z" fill="#F7A491"/>
<path d="M222.87 15.9432C222.87 15.9432 223.753 22.4736 225.866 23.6532C227.976 24.8329 227.093 27.7297 227.093 27.7297C227.093 27.7297 229.009 21.0003 227.339 18.8401C225.669 16.6799 222.87 15.9432 222.87 15.9432Z" fill="#13375B"/>
<path d="M224.614 24.5915C224.042 25.4426 224.044 26.4455 224.619 26.8313C225.194 27.2195 226.125 26.8438 226.697 25.9926C227.27 25.1415 227.27 24.1385 226.692 23.7503C226.117 23.3646 225.187 23.7403 224.614 24.5915Z" fill="#F7A491"/>
<path d="M217.514 24.9548L220.949 25.8184C220.949 25.8184 220.536 27.1224 219.014 26.7865C217.158 26.3783 217.514 24.9548 217.514 24.9548Z" fill="white"/>
<path d="M234.569 80.1991C234.734 80.1916 249.38 79.455 249.38 79.455C249.38 79.455 243.302 83.8226 243.178 83.8226C243.053 83.8226 238.337 81.9611 238.131 81.9611C237.924 81.9611 234.569 80.1991 234.569 80.1991Z" fill="#50BFA5"/>
<path d="M531.086 411.364L531.377 416.51C531.484 417.162 531.904 418.775 531.904 419.367C531.904 421.595 522.022 417.476 524.237 416.49C524.436 416.401 525.486 415.724 525.553 414.967C525.655 413.798 525.912 411.436 525.912 411.436L531.086 411.364Z" fill="#F7A491"/>
<path d="M524.142 416.513C524.142 416.513 526.462 417.192 527.649 417.364C528.838 417.533 530.404 416.099 531.245 416.488C532.171 416.913 532.134 420.751 532.134 420.751C532.134 420.751 519.693 421.843 516.193 420.714C514.807 420.266 519.399 418.098 524.142 416.513Z" fill="#00385F"/>
<path d="M547.542 411.097L547.835 416.244C547.94 416.896 548.36 418.509 548.36 419.101C548.36 421.328 538.478 417.21 540.693 416.224C540.894 416.134 542.256 414.955 542.32 414.196C542.422 413.028 542.37 411.169 542.37 411.169L547.542 411.097Z" fill="#F7A491"/>
<path d="M540.718 416.202C540.718 416.202 543.037 416.884 544.227 417.053C545.414 417.225 546.982 415.791 547.821 416.177C548.746 416.605 548.784 420.442 548.784 420.442C548.784 420.442 536.43 420.95 532.769 420.405C531.33 420.191 535.974 417.79 540.718 416.202Z" fill="#00385F"/>
<path d="M544.612 329.503C544.612 329.503 546.287 338.168 545.603 344.741C544.921 351.311 544.869 374.653 544.869 374.653L548.017 411.986L541.292 412.143C541.292 412.143 533.966 374.814 534.1 375.773C534.237 376.731 531.644 349.489 531.644 349.489L540.379 328.681L544.612 329.503Z" fill="#2A95FF"/>
<path d="M542.267 323.908C542.267 323.908 549.856 331.899 547.033 340.627C545.899 344.134 535.326 377.629 535.19 380.367C535.053 383.104 531.613 413.365 531.613 413.365L524.428 413.148L522.873 379.503L524.926 334.171L529.289 326.526L542.267 323.908Z" fill="#2A95FF"/>
<path d="M496.204 297.896C498.69 295.124 504.096 291.179 504.096 291.179C504.096 291.179 507.319 288.429 508.63 287.976C510.564 287.309 513.874 285.532 518.665 292.789C522.089 297.983 543.714 324.874 547.262 325.777L524.083 336.867C523.448 331.571 511.993 321.564 510.345 319.697C506.659 315.526 493.852 300.522 496.204 297.896Z" fill="#FF6C4A"/>
<path d="M497.287 286.63L504.507 290.855C504.507 290.855 504.711 297.02 502.349 298.62C500.368 299.964 498.863 296.739 498.863 296.739C498.863 296.739 496.177 293.018 494.137 291.861C492.098 290.701 497.287 286.63 497.287 286.63Z" fill="#F7A491"/>
<path d="M498.497 289.342C498.225 290.629 497.598 292.488 496.623 294.019C495.829 293.157 494.933 292.314 494.136 291.861C493.196 291.326 493.795 290.171 494.711 289.081C496.008 287.732 497.287 286.63 497.287 286.63L498.673 287.441C498.763 287.969 498.589 288.914 498.497 289.342Z" fill="#F47458"/>
<path d="M493.524 276.035C493.646 275.886 499.582 283.275 498.85 286.739C498.119 290.206 494.53 293.367 492.036 292.498C489.279 291.535 484.149 282.837 485.989 278.614C487.828 274.393 493.524 276.035 493.524 276.035Z" fill="#F7A491"/>
<path d="M487.026 273.706C489.614 272.265 493.835 271.852 496.988 273.504C500.866 275.533 501.749 280.642 500.535 283.758C499.32 286.874 500.711 288.633 500.711 288.633L498.653 287.434C498.653 287.434 497.451 285.557 497.294 284.064C497.138 282.568 494.957 282.834 493.895 282.155C493.074 281.632 492.028 279.938 490.702 279.057C490.702 279.057 487.364 278.648 485.722 279.569C482.922 281.14 483.32 275.766 487.026 273.706Z" fill="#13375B"/>
<path d="M495.562 283.402C495.542 284.509 496.067 285.415 496.732 285.428C497.399 285.438 497.951 284.549 497.971 283.439C497.991 282.332 497.466 281.423 496.801 281.413C496.137 281.403 495.582 282.292 495.562 283.402Z" fill="#F7A491"/>
<path d="M489.482 289.282L492.626 286.933C492.626 286.933 493.457 288.205 492.106 289.278C490.456 290.587 489.482 289.282 489.482 289.282Z" fill="white"/>
<path d="M481.591 336.026C482.378 334.876 482.721 333.216 483.811 331.949C484.174 331.524 484.757 331.046 485.419 330.568C490.655 327.504 504.293 319.608 504.823 318.995C505.453 318.269 514.761 302.804 514.761 302.804L506.401 300.91L498.231 315.337C497.549 315.877 484.58 325.464 484.58 325.464C484.58 325.464 482.002 327.477 480.591 328.42C479.879 328.836 479.189 329.105 478.585 329.316C477.823 329.58 476.375 330.304 476.081 330.56C475.74 330.862 475.058 331.501 474.653 331.892C474.247 332.285 473.757 332.726 473.567 332.96C473.451 333.101 473.092 333.296 472.831 333.427C472.438 333.622 472.49 334.201 472.91 334.321C473.306 334.433 473.844 334.184 474.175 334.03C475.115 333.587 476.263 332.397 476.323 332.541C476.382 332.688 475.218 335.239 475.103 335.54C474.991 335.841 473.652 338.815 473.582 339.477C473.515 340.142 473.913 340.294 474.212 340.052C474.468 339.843 476.619 335.871 476.619 335.871C476.619 335.871 476.895 335.366 477.002 335.655C477.109 335.946 475.163 339.555 474.971 340.147C474.782 340.739 474.934 341.225 475.481 341.018C476.148 340.764 477.987 336.785 477.987 336.785C477.987 336.785 478.226 336.289 478.391 336.461C478.552 336.633 476.848 339.677 476.828 340.027C476.808 340.378 477.126 340.724 477.587 340.431C478.127 340.085 479.739 336.518 479.739 336.518C479.739 336.518 479.939 336.282 480.001 336.449C480.063 336.613 478.794 339.313 478.888 339.706C478.968 340.037 479.267 339.97 479.267 339.97C479.931 339.97 480.805 337.175 481.591 336.026Z" fill="#F8A492"/>
<path d="M512.47 310.974C512.47 310.974 509.748 310.108 508.003 309.307C506.833 308.772 501.731 306.233 501.731 306.233C501.731 306.233 503.931 296.955 505.417 293.618C510.875 281.376 517.074 289.82 517.915 291.789C519.799 296.189 512.47 310.974 512.47 310.974Z" fill="#00385F"/>
<path d="M322.303 278.915L324.893 276.976C324.893 276.976 325.58 278.024 324.465 278.91C323.107 279.99 322.303 278.915 322.303 278.915Z" fill="white"/>
<path d="M626.46 420.477H24.5198C23.7672 420.477 23.1572 421.256 23.1572 422.217C23.1572 423.178 23.7672 423.954 24.5198 423.954H626.46C627.212 423.954 627.822 423.178 627.822 422.217C627.822 421.256 627.212 420.477 626.46 420.477Z" fill="#F5F5F5"/>
<path d="M249.716 79.4402C249.653 79.2834 249.517 79.2809 249.377 79.2759C248.018 79.2361 246.66 79.1739 245.313 78.9723C245.087 78.94 244.865 78.8877 244.659 78.8056C244.283 78.6562 243.915 78.6587 243.534 78.7657C243.33 78.8205 243.121 78.8329 242.909 78.8304C242.227 78.828 240.276 78.1635 239.276 77.9893C239.047 77.9495 238.865 77.7777 238.808 77.5513C237.822 73.654 235.709 64.9111 235.435 62.0342C235.085 58.3584 232.546 41.7786 232.546 41.7786L225.752 43.675C225.752 43.675 228.547 55.912 229.321 61.845C229.918 66.4267 234.497 76.1501 235.933 78.9449C236.633 81.0255 238.208 81.0852 238.571 81.13C238.78 81.1549 238.974 81.2569 239.111 81.4187C239.358 81.7074 239.641 81.9588 239.967 82.1628C240.209 82.3146 240.393 82.5137 240.552 82.7452C240.841 83.1658 241.1 83.6063 241.356 84.0493C241.525 84.3404 241.702 84.435 241.953 84.3653C242.222 84.2907 242.352 84.0916 242.347 83.7631C242.339 83.2778 242.182 82.8398 241.941 82.4241C241.712 82.0384 241.729 81.8119 241.993 81.456C242.148 81.2495 242.304 81.0504 242.503 80.8886C242.707 80.7219 242.924 80.5974 243.2 80.6348C243.688 80.7567 244.181 80.8563 244.681 80.911L245.092 80.9956L245.316 81.0429C245.35 81.0504 246.075 81.13 246.321 81.13C246.52 81.1325 246.841 81.1449 247.115 81.1574C247.364 81.1698 247.889 81.0404 247.906 81.0404C248.148 81.0355 248.362 80.9483 248.541 80.7866C248.613 80.7194 248.685 80.6447 248.648 80.5327C248.613 80.4282 248.534 80.3859 248.427 80.366C248.265 80.3361 247.421 80.2341 247.429 80.1992C247.68 80.1992 248.464 80.1793 248.715 80.1743C249.054 80.1644 249.345 80.0425 249.579 79.7936C249.671 79.694 249.778 79.597 249.716 79.4402Z" fill="#F7A491"/>
<path d="M228.429 33.1153C231.782 32.5056 234.549 47.51 234.549 47.51C234.549 47.51 227.098 49.5881 225.189 48.498C225.189 48.498 223.023 38.8941 222.246 39.2301L228.429 33.1153Z" fill="#2A95FF"/>
<path d="M147.351 302.781C147.573 302.144 144.48 301.632 144.316 300.99C144.151 300.345 148.22 300.295 148.366 299.73C148.635 298.69 143.906 299.511 143.999 299.023C144.092 298.538 148.927 297.451 148.404 296.614C147.881 295.778 143.509 298.264 143.376 297.699C143.244 297.132 147.651 295.753 147.572 294.509C147.53 293.844 140.339 297.821 139.505 297.461C138.672 297.1 140.402 293.979 139.738 293.513C139.074 293.051 137.169 299.86 136.711 300.086C136.254 300.313 126.539 305.857 123.082 306.738C122.663 305.581 121.755 304.021 121.385 302.926C119.446 304.304 118.006 304.999 116.004 306.256C117.454 309.889 119.518 313.869 120.528 314.326C123.604 315.715 135.501 305.847 137.876 304.16C140.253 302.47 141.613 303.018 143.22 302.483C144.827 301.95 147.129 303.416 147.351 302.781Z" fill="#F7A491"/>
<path d="M115.59 308C115.59 308 112.927 296.241 113.389 292.829C113.851 289.417 117.906 286.239 120.715 287.416C123.525 288.598 124.798 305.014 124.798 305.014L115.59 308Z" fill="white"/>
</svg>
